HIERARCHY
ROOT Hips
{
    OFFSET   0.000000   0.000000   0.000000
    CHANNELS 6 Xposition Yposition Zposition Zrotation Xrotation Yrotation
    JOINT Chest
    {
        OFFSET   0.000000   8.007230   0.000000
        CHANNELS 3 Zrotation Xrotation Yrotation
        JOINT Chest2
        {
            OFFSET   0.000000  22.077100   0.000000
            CHANNELS 3 Zrotation Xrotation Yrotation
            JOINT Neck
            {
                OFFSET   0.000000  23.254800  -0.000021
                CHANNELS 3 Zrotation Xrotation Yrotation
                JOINT Head
                {
                    OFFSET   0.000000  14.370000   1.956610
                    CHANNELS 3 Zrotation Xrotation Yrotation
                    End Site
                    {
                        OFFSET   0.000000  19.566000   0.000000
                    }
                }
            }
            JOINT LeftCollar
            {
                OFFSET   3.911900  19.017000  -0.467063
                CHANNELS 3 Zrotation Xrotation Yrotation
                JOINT LeftShoulder
                {
                    OFFSET  10.383700   0.000000   0.000000
                    CHANNELS 3 Zrotation Xrotation Yrotation
                    JOINT LeftElbow
                    {
                        OFFSET  26.662100   0.001529   0.000325
                        CHANNELS 3 Zrotation Xrotation Yrotation
                        JOINT LeftWrist
                        {
                            OFFSET  28.869000  -0.000011  -0.000096
                            CHANNELS 3 Zrotation Xrotation Yrotation
                            JOINT LeftFinger0
                            {
                                OFFSET   2.044650  -2.323460   3.252850
                                CHANNELS 3 Zrotation Xrotation Yrotation
                                JOINT LeftFinger01
                                {
                                    OFFSET   3.088130   0.000000   0.000000
                                    CHANNELS 3 Zrotation Xrotation Yrotation
                                    JOINT LeftFinger02
                                    {
                                        OFFSET   2.639460   0.000000   0.000000
                                        CHANNELS 3 Zrotation Xrotation Yrotation
                                        End Site
                                        {
                                            OFFSET   2.582190   0.000000   0.000000
                                        }
                                    }
                                }
                            }
                            JOINT LeftFinger1
                            {
                                OFFSET   8.364480   0.000000   3.252850
                                CHANNELS 3 Zrotation Xrotation Yrotation
                                JOINT LeftFinger11
                                {
                                    OFFSET   4.646930   0.000000   0.000000
                                    CHANNELS 3 Zrotation Xrotation Yrotation
                                    JOINT LeftFinger12
                                    {
                                        OFFSET   2.323460   0.000000   0.000000
                                        CHANNELS 3 Zrotation Xrotation Yrotation
                                        End Site
                                        {
                                            OFFSET   2.273050   0.000000   0.000000
                                        }
                                    }
                                }
                            }
                            JOINT LeftFinger2
                            {
                                OFFSET   8.364480   0.000016   1.078090
                                CHANNELS 3 Zrotation Xrotation Yrotation
                                JOINT LeftFinger21
                                {
                                    OFFSET   5.111620   0.000000   0.000000
                                    CHANNELS 3 Zrotation Xrotation Yrotation
                                    JOINT LeftFinger22
                                    {
                                        OFFSET   2.788160   0.000017   0.000000
                                        CHANNELS 3 Zrotation Xrotation Yrotation
                                        End Site
                                        {
                                            OFFSET   2.727660   0.000000   0.000000
                                        }
                                    }
                                }
                            }
                            JOINT LeftFinger3
                            {
                                OFFSET   7.899780   0.000015  -1.078090
                                CHANNELS 3 Zrotation Xrotation Yrotation
                                JOINT LeftFinger31
                                {
                                    OFFSET   4.646920   0.000000   0.000000
                                    CHANNELS 3 Zrotation Xrotation Yrotation
                                    JOINT LeftFinger32
                                    {
                                        OFFSET   2.323470   0.000000   0.000000
                                        CHANNELS 3 Zrotation Xrotation Yrotation
                                        End Site
                                        {
                                            OFFSET   2.273050   0.000000   0.000000
                                        }
                                    }
                                }
                            }
                            JOINT LeftFinger4
                            {
                                OFFSET   7.435090   0.000000  -3.252850
                                CHANNELS 3 Zrotation Xrotation Yrotation
                                JOINT LeftFinger41
                                {
                                    OFFSET   3.717550   0.000000   0.000000
                                    CHANNELS 3 Zrotation Xrotation Yrotation
                                    JOINT LeftFinger42
                                    {
                                        OFFSET   1.858760   0.000000   0.000000
                                        CHANNELS 3 Zrotation Xrotation Yrotation
                                        End Site
                                        {
                                            OFFSET   1.818440   0.000000   0.000000
                                        }
                                    }
                                }
                            }
                        }
                    }
                }
            }
            JOINT RightCollar
            {
                OFFSET  -3.911900  19.017000  -0.467062
                CHANNELS 3 Zrotation Xrotation Yrotation
                JOINT RightShoulder
                {
                    OFFSET -10.383700   0.000015   0.000000
                    CHANNELS 3 Zrotation Xrotation Yrotation
                    JOINT RightElbow
                    {
                        OFFSET -26.662100   0.001341   0.000385
                        CHANNELS 3 Zrotation Xrotation Yrotation
                        JOINT RightWrist
                        {
                            OFFSET -28.869000   0.000025  -0.000080
                            CHANNELS 3 Zrotation Xrotation Yrotation
                            JOINT RightFinger0
                            {
                                OFFSET  -2.044650  -2.323490   3.252850
                                CHANNELS 3 Zrotation Xrotation Yrotation
                                JOINT RightFinger01
                                {
                                    OFFSET  -3.088130   0.000000   0.000000
                                    CHANNELS 3 Zrotation Xrotation Yrotation
                                    JOINT RightFinger02
                                    {
                                        OFFSET  -2.639460   0.000000   0.000000
                                        CHANNELS 3 Zrotation Xrotation Yrotation
                                        End Site
                                        {
                                            OFFSET  -2.582190   0.000000   0.000000
                                        }
                                    }
                                }
                            }
                            JOINT RightFinger1
                            {
                                OFFSET  -8.364480   0.000000   3.252850
                                CHANNELS 3 Zrotation Xrotation Yrotation
                                JOINT RightFinger11
                                {
                                    OFFSET  -4.646930   0.000000   0.000000
                                    CHANNELS 3 Zrotation Xrotation Yrotation
                                    JOINT RightFinger12
                                    {
                                        OFFSET  -2.323470   0.000000   0.000000
                                        CHANNELS 3 Zrotation Xrotation Yrotation
                                        End Site
                                        {
                                            OFFSET  -2.273050   0.000000   0.000000
                                        }
                                    }
                                }
                            }
                            JOINT RightFinger2
                            {
                                OFFSET  -8.364480   0.000000   1.078090
                                CHANNELS 3 Zrotation Xrotation Yrotation
                                JOINT RightFinger21
                                {
                                    OFFSET  -5.111610   0.000000   0.000000
                                    CHANNELS 3 Zrotation Xrotation Yrotation
                                    JOINT RightFinger22
                                    {
                                        OFFSET  -2.788160   0.000000   0.000000
                                        CHANNELS 3 Zrotation Xrotation Yrotation
                                        End Site
                                        {
                                            OFFSET  -2.727660   0.000000   0.000000
                                        }
                                    }
                                }
                            }
                            JOINT RightFinger3
                            {
                                OFFSET  -7.899780   0.000000  -1.078090
                                CHANNELS 3 Zrotation Xrotation Yrotation
                                JOINT RightFinger31
                                {
                                    OFFSET  -4.646920   0.000000   0.000000
                                    CHANNELS 3 Zrotation Xrotation Yrotation
                                    JOINT RightFinger32
                                    {
                                        OFFSET  -2.323470   0.000000   0.000000
                                        CHANNELS 3 Zrotation Xrotation Yrotation
                                        End Site
                                        {
                                            OFFSET  -2.273050   0.000000   0.000000
                                        }
                                    }
                                }
                            }
                            JOINT RightFinger4
                            {
                                OFFSET  -7.435090   0.000000  -3.252850
                                CHANNELS 3 Zrotation Xrotation Yrotation
                                JOINT RightFinger41
                                {
                                    OFFSET  -3.717550   0.000000   0.000000
                                    CHANNELS 3 Zrotation Xrotation Yrotation
                                    JOINT RightFinger42
                                    {
                                        OFFSET  -1.858770   0.000000   0.000000
                                        CHANNELS 3 Zrotation Xrotation Yrotation
                                        End Site
                                        {
                                            OFFSET  -1.818440   0.000000   0.000000
                                        }
                                    }
                                }
                            }
                        }
                    }
                }
            }
        }
    }
    JOINT LeftHip
    {
        OFFSET   9.783010   0.000000   0.000000
        CHANNELS 3 Zrotation Xrotation Yrotation
        JOINT LeftKnee
        {
            OFFSET   0.000070 -41.789100   0.000028
            CHANNELS 3 Zrotation Xrotation Yrotation
            JOINT LeftAnkle
            {
                OFFSET   0.000087 -41.133200  -0.000100
                CHANNELS 3 Zrotation Xrotation Yrotation
                JOINT LeftToe
                {
                    OFFSET   0.000000  -6.358960  14.674500
                    CHANNELS 3 Zrotation Xrotation Yrotation
                    End Site
                    {
                        OFFSET   0.000000   0.000000   3.913200
                    }
                }
            }
        }
    }
    JOINT RightHip
    {
        OFFSET  -9.783020   0.000000   0.000000
        CHANNELS 3 Zrotation Xrotation Yrotation
        JOINT RightKnee
        {
            OFFSET   0.000044 -41.789100  -0.000870
            CHANNELS 3 Zrotation Xrotation Yrotation
            JOINT RightAnkle
            {
                OFFSET  -0.000090 -41.133200  -0.000245
                CHANNELS 3 Zrotation Xrotation Yrotation
                JOINT RightToe
                {
                    OFFSET   0.000000  -6.358960  14.674500
                    CHANNELS 3 Zrotation Xrotation Yrotation
                    End Site
                    {
                        OFFSET   0.000000   0.000000   3.913200
                    }
                }
            }
        }
    }
}
MOTION
Frames: 5
Frame Time:   0.016667
 -2.988970  89.932600   2.140470  -2.886620  -5.013530  -6.651650   0.501117   4.430390  -0.298639   1.030120   8.857910  -0.639172   1.916750  -0.600823   0.026216   3.149770  -1.214620   7.030180  -3.028510  -0.460673   4.378150 -72.381700  17.153300  -2.134890  -4.556270  -4.616120 -20.835200  12.499900   4.781120  11.966600  45.889600  35.844300 -73.715800 -21.608900   0.000927   0.005695  -5.804430   0.010950   0.002852 -34.938900   9.910520 -13.837300 -29.580600   0.000630   0.000598 -20.706400   0.000530  -0.012499 -29.563600   0.352568  -0.619647 -44.345600  -0.004339  -0.000669 -29.534100   0.001880  -0.000571 -28.356200   0.339425  -0.627051 -34.692800  -0.010513   0.002472 -23.105400  -0.000840  -0.009278 -32.870100   0.462289  -0.718806 -49.318100   0.003607   0.000980 -32.845800  -0.003254  -0.012812   9.282210   1.914110   5.661890  69.552200  11.002700   2.229130   1.452640  -6.129710  17.025000 -18.839300 -15.087400   3.530890 -36.648600  29.681400  61.033300  32.943800   0.001904  -0.001136  11.471900   0.002272  -0.003486  32.926800   2.208080   3.404820  26.993800  -0.004133   0.002332  18.895700   0.002774   0.002050  28.652300  -2.100600  -3.837730  39.557300  -0.005201   0.009736  26.356700   0.000986   0.008852  28.613600  -3.396310  -6.184360  42.799900  -0.005709   0.000070  28.504700  -0.003418  -0.000214  41.814900  -4.712270  -5.248250  63.040200   0.001176   0.001168  41.987500   0.000744  -0.004087   3.640590   7.280310   2.698110  -0.371975   4.604240  15.510800  -7.160010  -7.108460   3.370440   0.000000   0.000000  -0.000000   4.019010   7.015780  -9.021190   0.288883   1.355240  -7.510100 -10.546000   0.153928   4.678790  -0.000000   0.000000   0.000000
 -2.976850  89.932600   2.135110  -2.897320  -5.043120  -6.656570   0.501286   4.452880  -0.307704   1.031330   8.902820  -0.657626   1.944790  -0.606225   0.026158   3.195350  -1.225210   6.963540  -3.027300  -0.469247   4.446440 -72.588800  17.194800  -1.974960  -4.609160  -4.812560 -21.422300  12.544300   4.612510  12.221700  45.922200  35.589000 -73.503900 -21.540300   0.004518   0.005709  -5.770120   0.011061   0.002844 -35.116400   9.261280 -12.903600 -29.581400   0.000984  -0.004181 -20.707000   0.000444  -0.013034 -29.522000   0.353688  -0.622514 -44.283200  -0.004173  -0.000668 -29.492600   0.001795  -0.000569 -28.309300   0.340478  -0.629951 -34.277500  -0.011142  -0.001452 -22.828800  -0.000974  -0.010040 -32.639600   0.210397  -0.339254 -48.956400   0.003676  -0.005243 -32.605000  -0.003457  -0.013530   9.283000   1.892560   5.701930  69.549700  11.022600   2.238570   1.462260  -6.141930  17.008400 -18.829100 -15.080600   3.521050 -36.647500  29.678600  61.036900  32.956700   0.001908  -0.001128  11.478300   0.002264  -0.003489  32.936600   2.197890   3.387890  27.001300  -0.004076   0.002275  18.900900   0.002767   0.002003  28.651300  -2.108230  -3.851380  39.562000  -0.004917   0.009658  26.356400   0.000926   0.008770  28.613000  -3.396310  -6.195300  42.808700  -0.005474   0.000071  28.510500  -0.003308  -0.000215  41.813400  -4.720830  -5.257370  63.040700   0.001177   0.001167  41.987500   0.000745  -0.004151   3.648890   7.309450   2.733270  -0.379920   4.603110  15.470400  -7.147910  -7.109530   3.377290  -0.000000   0.000000  -0.000000   4.021240   7.038320  -9.021580   0.289678   1.359030  -7.496380 -10.540200   0.162179   4.678830   0.000000   0.000000   0.000000
 -2.958370  89.932600   2.125670  -2.915250  -5.102640  -6.663760   0.500289   4.496360  -0.322300   1.030810   8.989670  -0.687315   1.991070  -0.627523   0.026101   3.271310  -1.267670   6.753310  -3.025540  -0.477777   4.578760 -72.954700  17.237700  -1.635660  -4.720840  -4.980350 -22.750300  12.698000   4.317570  12.652400  45.994200  35.231900 -73.360200 -21.140600   0.012224   0.005806  -5.570270   0.011173   0.002827 -35.272000   8.604740 -11.975000 -29.587500   0.001481  -0.008961 -20.711200   0.000298  -0.013569 -29.462200   0.361524  -0.642583 -44.190200  -0.003867  -0.000668 -29.430700   0.001654  -0.000567 -28.262200   0.347851  -0.650246 -33.862200  -0.011771  -0.005376 -22.552200  -0.001198  -0.010802 -32.405700  -0.076786   0.117644 -48.594700   0.003774  -0.011467 -32.364100  -0.003742  -0.014248   9.284230   1.855530   5.776710  69.544400  11.062700   2.260510   1.481940  -6.169180  16.970000 -18.807200 -15.063700   3.506470 -36.631700  29.672300  61.045100  32.981000   0.001912  -0.001119  11.490500   0.002256  -0.003498  32.954800   2.184070   3.364300  27.015500  -0.004020   0.002179  18.910800   0.002750   0.001925  28.650000  -2.118650  -3.870680  39.569700  -0.004633   0.009580  26.356100   0.000805   0.008689  28.612400  -3.396380  -6.206250  42.825100  -0.005239   0.000072  28.521500  -0.003198  -0.000215  41.811800  -4.729410  -5.266490  63.044200   0.001180   0.001165  41.987500   0.000746  -0.004258   3.664360   7.365260   2.790030  -0.394558   4.602540  15.404400  -7.129400  -7.112290   3.386780   0.000000   0.000000  -0.000000   4.023790   7.084100  -9.022170   0.291130   1.367830  -7.482670 -10.532200   0.174241   4.678860   0.000000   0.000000   0.000000
 -2.946290  89.935700   2.116910  -2.929670  -5.170560  -6.667660   0.497376   4.544420  -0.332866   1.026190   9.085700  -0.708793   2.036020  -0.669427   0.026116   3.346680  -1.351810   6.420900  -3.018390  -0.459501   4.722370 -73.304600  17.106900  -1.212870  -4.832650  -4.842020 -24.552400  13.015600   4.077410  13.101300  45.922600  35.136000 -73.822100 -20.284900   0.025096   0.008781  -5.142440   0.010796   0.002800 -35.473200   9.264470 -12.682200 -29.832700   0.001697  -0.006515 -20.896400   0.000149  -0.008159 -29.422300   0.646071  -1.165520 -44.129800  -0.003470  -0.006916 -29.390500   0.001513  -0.005305 -28.292400   0.622678  -1.159800 -34.177300  -0.005470   0.000708 -22.762000  -0.001423  -0.003203 -32.539200  -0.117927   0.207903 -48.792000   0.003816  -0.005094 -32.495500  -0.003865  -0.007085   9.278830   1.821710   5.849830  69.548400  11.104700   2.290470   1.504730  -6.203980  16.920800 -18.779800 -15.040600   3.499010 -36.612800  29.677800  61.069100  33.006200   0.001912  -0.001143  11.503200   0.002261  -0.003513  32.972500   2.179700   3.354550  27.029800  -0.004148   0.002081  18.920800   0.002724   0.001848  28.649600  -2.122210  -3.879660  39.574800  -0.006740   0.009599  26.357300   0.000643   0.008709  28.612500  -3.396580  -6.205230  42.840500  -0.005298   0.000070  28.531800  -0.003226  -0.000214  41.817200  -4.729470  -5.264840  63.053400   0.001181   0.001165  41.992600   0.000746  -0.004362   3.681070   7.424150   2.839840  -0.411325   4.607750  15.351800  -7.118260  -7.116540   3.390420  -0.000000   0.000000  -0.000000   4.021270   7.137510  -9.010570   0.292853   1.379450  -7.490800 -10.529500   0.180157   4.677630   0.000000   0.000000   0.000000
 -2.938070  89.941100   2.107840  -2.944450  -5.253010  -6.669780   0.491767   4.598300  -0.342893   1.016170   9.193390  -0.729033   2.062740  -0.727989   0.026219   3.389560  -1.469850   5.881470  -2.996560  -0.410231   4.890330 -73.653300  16.834900  -0.699891  -4.835080  -4.395030 -26.753500  13.367000   3.769610  13.371500  45.529200  35.169700 -74.561100 -18.960300   0.033853   0.011674  -4.480130   0.009939   0.002782 -35.791500  10.217000 -13.717200 -30.235000   0.001770  -0.004070 -21.177000   0.000059  -0.002750 -29.386800   1.071720  -1.923200 -44.100100  -0.003213  -0.015006 -29.370700   0.001428  -0.011036 -28.347900   1.048920  -1.937420 -34.806400   0.000832   0.006791 -23.181000  -0.001559   0.004397 -32.780500  -0.123804   0.220797 -49.151200   0.003830   0.001278 -32.734700  -0.003907   0.000078   9.257430   1.790210   5.939820  69.570100  11.163300   2.329140   1.533000  -6.250020  16.850800 -18.745900 -15.006500   3.492920 -36.599100  29.693800  61.112100  33.035300   0.001911  -0.001167  11.517700   0.002267  -0.003528  32.993400   2.178970   3.351480  27.046800  -0.004426   0.002021  18.932700   0.002691   0.001802  28.649600  -2.122980  -3.882970  39.582100  -0.010339   0.009738  26.361700   0.000498   0.008849  28.612700  -3.396760  -6.203270  42.861200  -0.005712   0.000068  28.545600  -0.003415  -0.000213  41.828900  -4.729490  -5.261870  63.068900   0.001182   0.001164  42.003900   0.000746  -0.004425   3.698090   7.493690   2.870890  -0.428235   4.618770  15.305900  -7.108710  -7.121980   3.391570   0.000000   0.000000   0.000000   4.017940   7.202320  -8.994210   0.295324   1.395300  -7.507070 -10.528200   0.184419   4.674130   0.000000   0.000000  -0.000000
